<?xml version="1.0" encoding="utf-8"?>
<!-- Generator: Adobe Illustrator 16.0.3, SVG Export Plug-In . SVG Version: 6.00 Build 0)  -->
<!DOCTYPE svg PUBLIC "-//W3C//DTD SVG 1.0//EN" "http://www.w3.org/TR/2001/REC-SVG-20010904/DTD/svg10.dtd">
<svg version="1.0" id="Ebene_1" xmlns="http://www.w3.org/2000/svg" xmlns:xlink="http://www.w3.org/1999/xlink" x="0px" y="0px"
	 width="722px" height="319px" viewBox="0 0 722 319" enable-background="new 0 0 722 319" xml:space="preserve">
<g>
	<polygon fill="#0A0909" points="292.629,259.934 327.795,199.721 327.562,196.758 280.668,200.448 281.08,205.678 319.78,202.632 
		284.621,262.932 284.854,265.896 334.188,262.013 333.77,256.696 	"/>
	<polygon fill="#0A0909" points="420.213,208.683 420.488,203.444 385.213,201.596 381.781,267.08 387.72,267.391 389.297,237.268 
		414.967,238.614 415.246,233.288 389.577,231.942 390.876,207.146 	"/>
	<g>
		<path fill="#0A0909" d="M355.279,273.717l5.76-0.352l-2.669-43.635l-5.76,0.353L355.279,273.717z M354.983,221.616
			c1.164-0.071,2.141-0.554,2.933-1.45c0.792-0.895,1.153-1.924,1.082-3.088c-0.072-1.163-0.555-2.141-1.45-2.933
			c-0.895-0.792-1.925-1.153-3.088-1.081c-1.164,0.071-2.141,0.554-2.934,1.449c-0.792,0.895-1.152,1.925-1.081,3.088
			c0.07,1.164,0.555,2.142,1.45,2.934C352.79,221.327,353.819,221.687,354.983,221.616"/>
		<path fill="#0A0909" d="M483.514,264.988c7.054,0,13.349-2.302,18.886-6.907v-7.169c-5.188,5.596-11.483,8.393-18.886,8.393
			c-7.693,0-14.019-2.695-18.973-8.087c-4.955-5.392-7.432-12.022-7.432-19.891c0-7.927,2.477-14.587,7.432-19.978
			c4.954-5.392,11.279-8.088,18.973-8.088c7.286,0,13.581,2.827,18.886,8.481v-7.257c-5.479-4.546-11.774-6.819-18.886-6.819
			c-9.21,0-16.846,3.249-22.908,9.748c-6.062,6.499-9.093,14.47-9.093,23.913s3.031,17.414,9.093,23.913
			C466.668,261.739,474.304,264.988,483.514,264.988 M432.104,264.114h5.771v-43.716h-5.771V264.114z M434.99,212.092
			c1.166,0,2.171-0.423,3.017-1.268c0.845-0.845,1.268-1.85,1.268-3.016s-0.423-2.171-1.268-3.017
			c-0.846-0.845-1.851-1.267-3.017-1.267s-2.171,0.422-3.017,1.267c-0.845,0.846-1.268,1.851-1.268,3.017s0.423,2.171,1.268,3.016
			C432.819,211.668,433.824,212.092,434.99,212.092 M258.678,198.54v55.607l-41.704-55.607h-5.334v65.574h5.945v-55.607
			l41.617,55.607h5.334V198.54H258.678z M186.327,264.114h5.771v-43.716h-5.771V264.114z M189.212,212.092
			c1.166,0,2.171-0.423,3.018-1.268c0.845-0.845,1.267-1.85,1.267-3.016s-0.422-2.171-1.267-3.017
			c-0.847-0.845-1.852-1.267-3.018-1.267s-2.171,0.422-3.016,1.267c-0.845,0.846-1.269,1.851-1.269,3.017s0.424,2.171,1.269,3.016
			C187.041,211.668,188.046,212.092,189.212,212.092 M127.982,244.792l15.563-40.044l15.651,40.044H127.982z M166.715,264.114h6.471
			l-26.317-65.574h-6.558l-26.317,65.574h6.47l5.509-14.251h35.234L166.715,264.114z M96.577,198.54L70.61,236.922L44.817,198.54
			h-6.208v65.574h5.946v-56.743l26.055,39.257l26.229-39.257v56.743h5.858V198.54H96.577z"/>
	</g>
	<polyline fill="#FFFFFF" points="270.342,193.506 275.975,195.967 279.256,199.412 280.405,192.795 269.631,189.787 	"/>
	<g>
		<path fill="#FFFFFF" d="M365.582,203.747c0,0,1.167-2.406,0.582-5.104c-0.582-2.698-5.905-2.917-5.905-2.917l-0.948,6.782"/>
		<path fill="#FFFFFF" d="M318.276,198.543c0,0,25.139-2.089,27.982-5.443l2.845-3.354l-19.615,1.896l-9.681,0.747"/>
		<path fill="#FFFFFF" d="M399.05,192.736l-0.51,4.521l11.521-2.698c0,0,6.344,0.948,7.146,0.073s3.281-4.594,3.281-4.594
			l-8.458-4.156l-9.625,2.771"/>
		<path fill="#FFFFFF" d="M284.389,201.596c0,0,9.953-0.984,11.595-4.375c1.64-3.391,6.963-7.474,6.963-7.474l-19.031,5.104
			l-3.81,4.886"/>
		<path fill="#FFFFFF" d="M330.764,211.658c0,0,2.845-8.969,6.453-9.406c0,0,3.828-5.797,7.11-6.563c0,0,0.875-2.843,2.296-3.937
			c1.422-1.094,9.133-1.477,9.133-1.477l8.787,3.318l1.549,10.299l0.985,5.141l-6.016,1.75l-7.716,4.263l1.152-6.05l0.11-2.643
			l-0.164-1.094l-1.915,0.165l-3.364-0.576l-0.354,3.036l-2.14,2.976"/>
		<path fill="#FFFFFF" d="M394.857,207.174c0,0-1.039-7.014,3.965-10.781c5.004-3.766,10.691-6.172,10.691-6.172l-1.203,7.547
			c0,0,3.5,6.453,1.86,10.5"/>
		<path fill="#FFFFFF" d="M415.748,191.752c0,0,2.078,7.219,3.063,8.203c0.983,0.985-0.548,10.172,4.922,12.141l11.366,11.295
			l1.32-15.67c0,0,0.219-6.891-3.609-8.969c-3.827-2.078-2.188-6.672-2.188-6.672s-0.875-3.828-3.937-4.375"/>
	</g>
	<polyline fill="#FFFFFF" points="354.251,215.705 353.346,215.046 353.799,211.793 356.146,212.083 	"/>
	<polyline fill="#FFFFFF" points="341.898,211.176 346.758,208.458 347.499,209.241 346.264,214.964 343.546,217.559 	"/>
	<g>
		<path fill="none" stroke="#878787" stroke-width="1.4" stroke-miterlimit="10" d="M435.968,208.514
			c1.173,6.256-0.977,15.249-0.977,15.249l-9.58-11.339"/>
		<path fill="#FFFFFF" d="M430.689,193.949c0,0-2.542-2.248-4.985-2.053"/>
		<path fill="#FFFFFF" d="M338.11,209.379c1.766,0.286,4.977,1.203,4.375,9.461c-0.602,8.258-3.555,11.593-3.555,11.593
			s-8.039-7.163-5.906-19.359C333.024,211.074,336.087,209.051,338.11,209.379"/>
		<path fill="#FFFFFF" d="M357.634,228.192c-0.055-0.164-5.414-11.703-2.734-14.328s6.398-5.688,9.078-3.118
			c2.68,2.571,3.72,9.079,2.296,11.868"/>
		<path fill="none" stroke="#878787" stroke-width="1.4" stroke-miterlimit="10" d="M299.606,62.279c0,0,0.293,6.061,4.397,7.918
			c0,0,4.399,0.586,4.889-10.362 M301.072,59.737c0,0,6.549-3.421,13.783,4.399c0,0-7.137,10.655-19.16,4.301 M318.178,57.783
			c0,0-4.691-3.422-6.939-4.595c-2.249-1.173-5.572-3.714-7.723,0.587c-2.15,4.3-8.798,22.385-19.647,18.67 M212.314,87.89
			c0,0-4.154-5.865,0.146-8.602c4.302-2.737,9.629-2.151,9.629-2.151 M329.224,98.251c0,0,18.378-4.692,13.686-21.114
			c-4.692-16.422-22.873-14.271-22.873-14.271s4.301-9.385-7.625-15.25c-11.926-5.865-18.377,1.173-18.377,1.173
			c-26.979-0.586-33.04,11.144-33.04,11.144s-6.549-3.47-13.685-1.564c-7.389,1.973-9.385,9.775-9.385,9.775
			c-14.076,5.083-22.679,15.249-29.717,27.566c-7.037,12.317,3.324,26.979,3.324,26.979 M211.532,122.689
			c0,0-3.202-10.044,4.104-14.272c7.956-4.603,20.919-10.947,34.801-9.97c13.881,0.977,40.077,2.346,48.875-0.977
			c8.798-3.324,27.565,0.977,30.106,7.428c2.542,6.452,2.151,12.903-1.173,16.618c-3.323,3.714-7.429,12.903-8.797,22.874
			c-1.369,9.97-1.369,19.55-10.361,29.52c-8.994,9.971-17.399,18.964-25.807,18.769c-8.406-0.196-15.249-4.106-16.031-6.647
			c0.195,8.602,8.407,9.774,8.407,9.774s3.518,5.67,10.752,5.67s12.512-6.647,19.94-15.836c7.43-9.188,17.791-21.505,25.415-26.783
			c7.625-5.279,23.07-13.294,22.68-33.04c-1.369-28.543-11.145-39.1-11.145-39.1"/>
		<path fill="#878787" d="M305.552,64.59c0,2.8-0.528,5.069-1.181,5.069s-1.181-2.269-1.181-5.069c0-2.8,0.528-5.07,1.181-5.07
			S305.552,61.79,305.552,64.59"/>
		<path fill="#878787" d="M247.406,72.958c0,0-2.565-2.933-4.911-1.173c-2.347,1.76-1.467,4.912-1.467,4.912
			S243.081,72.518,247.406,72.958"/>
		<path fill="none" stroke="#878787" stroke-width="1.4" stroke-miterlimit="10" d="M333.134,210.665c0,0-1.955,15.151,6.159,20.43
			c1.661-2.053,3.704-11.309,3.411-15.317 M355.324,208.221c0,0,3.714-3.91,6.842-2.15 M338.021,202.356
			c0,0,4.398-0.782,6.451,3.128 M344.18,196.198c0,0,3.227-1.173,6.354,3.519 M354.884,196.344c0,0,1.466-4.838,6.598-4.252
			c5.132,0.587,5.132,7.771,4.252,10.85c0,0,1.906,3.373,1.173,4.986c0,0,2.199,6.158,0.733,10.117c0,0-1.759-8.651-6.451-8.211
			c-4.691,0.44-9.091,5.327-6.451,11.486c0,0-4.105-6.501,0.587-13.099c0,0-1.027-2.419-0.808-4.252 M354.444,205.435
			c-4.106,1.173-5.278-0.586-5.278-0.586 M347.846,191.066c0,0-3.813,2.199-3.666,5.132c0,0-5.572,1.466-6.158,6.158
			c0,0-7.039,3.226-7.185,9.971c0,0,5.572-4.986,8.798-2.786c3.227,2.199,2.96,4.596,3.233,8.479c0,0,4.391-2.468,3.805-7.16
			c0,0,2.786-4.105,1.906-6.598c0,0,1.906,0.147,1.906-0.733 M328.833,186.227c0,0,5.083-4.887,14.663-0.587
			c0,0,14.076-1.368,17.595,5.866 M342.518,164.917c0,0,1.173,14.077-4.301,19.16 M344.278,160.617c0,0-1.369,5.278-5.279,7.624
			 M330.788,159.639c0,0-2.541,8.602-0.978,13.49c0,0-9.58,9.579-9.774,19.941c0,0-3.324,4.887-1.76,5.474
			c1.563,0.586,23.46-2.933,25.61-4.692 M342.714,151.232c0,0,5.865-1.955,9.384,3.519c3.52,5.475,1.564,19.355,9.58,26.198
			 M315.344,48.985c0,0,12.512-0.196,23.852,6.061c11.339,6.255,19.158,11.534,34.799,17.008
			c15.64,5.474,40.273,23.069,40.273,53.568 M271.907,119.827c-1.085,1.854,2.804,10.448,11.358,13.239c0,0-4.89-7.778-6.251-11.757
			C275.671,117.38,273.288,117.468,271.907,119.827z M267.068,120.707c-1.086,1.854,2.804,10.448,11.359,13.239
			c0,0-4.891-7.778-6.252-11.757C270.833,118.26,268.449,118.348,267.068,120.707z M261.936,122.32
			c-1.084,1.853,2.805,10.447,11.359,13.239c0,0-4.89-7.778-6.251-11.757C265.701,119.873,263.317,119.96,261.936,122.32z
			 M256.071,123.053c-1.085,1.854,2.804,10.447,11.359,13.239c0,0-4.891-7.778-6.252-11.757
			C259.836,120.606,257.452,120.693,256.071,123.053z M250.353,123.64c-1.085,1.853,2.805,10.447,11.359,13.239
			c0,0-4.891-7.779-6.251-11.757C254.117,121.192,251.734,121.28,250.353,123.64z M245.074,124.373
			c-1.085,1.853,2.804,10.447,11.359,13.238c0,0-4.891-7.777-6.252-11.757C248.839,121.925,246.455,122.013,245.074,124.373z
			 M239.648,125.546c-1.084,1.853,2.805,10.447,11.359,13.238c0,0-4.89-7.778-6.251-11.756
			C243.414,123.098,241.03,123.186,239.648,125.546z M234.224,126.572c-1.085,1.854,2.805,10.448,11.359,13.239
			c0,0-4.891-7.778-6.251-11.757C237.988,124.125,235.604,124.213,234.224,126.572z M227.772,125.986
			c-1.086,1.853,2.804,10.447,11.359,13.238c0,0-4.891-7.777-6.252-11.757C231.537,123.539,229.153,123.626,227.772,125.986z
			 M221.907,125.399c-1.085,1.853,2.804,10.448,11.359,13.239c0,0-4.891-7.778-6.252-11.757
			C225.672,122.952,223.288,123.039,221.907,125.399z M302.832,96.639c0,0,15.835,13.489,19.501,35.483 M328.148,103.041
			c0,0,3.323,2.346,7.918,10.362"/>
		<path fill="#FFFFFF" d="M354.248,219.854c0,0,4.203,12.414,6.256,14.174c0,0,7.136-10.264,6.843-17.205"/>
		<path fill="none" stroke="#878787" stroke-width="1.4" stroke-miterlimit="10" d="M354.248,219.854c0,0,4.203,12.414,6.256,14.174
			c0,0,7.136-10.264,6.843-17.205"/>
		<path fill="none" stroke="#878787" stroke-width="1.4" stroke-miterlimit="10" d="M408.598,182.317c0,0,3.91,1.172,3.128,7.233
			c-0.391,3.91-3.323,5.67-3.323,5.67s0.195,1.368,0.195,3.128c0,0,4.398,7.526,0.195,14.76 M406.056,180.558
			c-2.737-0.195-10.557,5.474-7.037,13.099l-0.196,2.736c0,0-6.549,7.039-2.736,17.009 M440.758,176.452
			c-0.196-0.293-6.461-3.241-18.573-2.443c-16.324,1.075-16.617,6.354-16.617,6.354 M429.126,138.721c0,0,6.353-3.226,11.143,4.887
			c4.79,8.113,1.466,17.595,1.466,17.595s6.843,2.151,5.866,20.43c0,0,3.812,6.941-1.858,6.941c-5.669,0-15.15,1.466-21.993-5.084
			 M426.682,148.006c0,0,0.489,4.398,3.714,8.309c0,0-1.466,13.685,2.249,17.595 M346.624,151.037c0,0,13.49,0.587,16.227,7.136
			c2.737,6.549,8.406,18.67,16.813,20.625"/>
		<path fill="#FFFFFF" d="M403.905,200.89c-4.303-2.326-14.076,9.775-1.955,25.024c0,0,2.934-8.602,5.475-10.557
			C409.967,213.401,411.139,204.799,403.905,200.89"/>
		<path fill="none" stroke="#878787" stroke-width="1.4" stroke-miterlimit="10" d="M403.905,200.89
			c-4.303-2.326-14.076,9.775-1.955,25.024c0,0,2.934-8.602,5.475-10.557C409.967,213.401,411.139,204.799,403.905,200.89z"/>
		<path fill="none" stroke="#878787" stroke-width="1.4" stroke-miterlimit="10" d="M278.051,122.591
			c0,0,11.438,3.519,13.051,20.968c0,0,0.587,7.185,0.194,9.726 M401.755,91.213c0,0,26.197,15.836,34.604,48.094 M416.027,194.634
			c-3.911,1.564-5.963-0.587-5.963-0.587 M418.08,198.348l1.075,2.932c-1.955,8.896,6.255,11.437,6.255,11.437
			c-4.203-3.616-4.984-10.361,0.783-12.707c5.767-2.346,9.97,9.189,9.97,9.189c0.782-8.798-2.934-9.873-4.692-11.633
			c-1.759-1.76-0.781-3.617-0.781-3.617c-0.294-7.038-5.377-6.94-5.377-6.94s-1.271-4.497-5.474-6.452 M418.959,186.911
			c-2.346,1.271-5.278,5.865-0.879,11.437c0,0,0.977-4.79,4.594-5.376"/>
		<path fill="#FFFFFF" d="M215.296,109.59c-1.805,2.15,1.319,14.076,11.729,19.55c0,0-4.594-11.094-5.474-16.52
			C220.683,107.263,217.593,106.853,215.296,109.59"/>
		<path fill="none" stroke="#878787" stroke-width="1.4" stroke-miterlimit="10" d="M215.296,109.59
			c-1.805,2.15,1.319,14.076,11.729,19.55c0,0-4.594-11.094-5.474-16.52C220.683,107.263,217.593,106.853,215.296,109.59z"/>
		<path fill="#FFFFFF" d="M209.914,117.7c-1.418,2.422,3.664,13.655,14.847,17.303c0,0-6.393-10.166-8.17-15.366
			C214.834,114.502,211.72,114.616,209.914,117.7"/>
		<path fill="none" stroke="#878787" stroke-width="1.4" stroke-miterlimit="10" d="M209.914,117.7
			c-1.418,2.422,3.664,13.655,14.847,17.303c0,0-6.393-10.166-8.17-15.366C214.834,114.502,211.72,114.616,209.914,117.7z"/>
		<path fill="#FFFFFF" d="M221.454,106.071c-1.806,2.15,1.319,14.076,11.729,19.55c0,0-4.594-11.095-5.474-16.52
			C226.841,103.744,223.751,103.334,221.454,106.071"/>
		<path fill="none" stroke="#878787" stroke-width="1.4" stroke-miterlimit="10" d="M221.454,106.071
			c-1.806,2.15,1.319,14.076,11.729,19.55c0,0-4.594-11.095-5.474-16.52C226.841,103.744,223.751,103.334,221.454,106.071z"/>
		<path fill="#FFFFFF" d="M227.612,103.334c-1.805,2.15,1.319,14.076,11.729,19.55c0,0-4.594-11.095-5.474-16.519
			C232.999,101.007,229.909,100.597,227.612,103.334"/>
		<path fill="none" stroke="#878787" stroke-width="1.4" stroke-miterlimit="10" d="M227.612,103.334
			c-1.805,2.15,1.319,14.076,11.729,19.55c0,0-4.594-11.095-5.474-16.519C232.999,101.007,229.909,100.597,227.612,103.334z"/>
		<path fill="#FFFFFF" d="M234.455,101.282c-1.805,2.15,1.319,14.076,11.729,19.55c0,0-4.594-11.095-5.474-16.52
			C239.842,98.955,236.752,98.544,234.455,101.282"/>
		<path fill="none" stroke="#878787" stroke-width="1.4" stroke-miterlimit="10" d="M234.455,101.282
			c-1.805,2.15,1.319,14.076,11.729,19.55c0,0-4.594-11.095-5.474-16.52C239.842,98.955,236.752,98.544,234.455,101.282z"/>
		<path fill="#FFFFFF" d="M241.297,100.011c-1.804,2.15,1.32,14.076,11.73,19.55c0,0-4.595-11.095-5.475-16.52
			C246.686,97.684,243.594,97.273,241.297,100.011"/>
		<path fill="none" stroke="#878787" stroke-width="1.4" stroke-miterlimit="10" d="M241.297,100.011
			c-1.804,2.15,1.32,14.076,11.73,19.55c0,0-4.595-11.095-5.475-16.52C246.686,97.684,243.594,97.273,241.297,100.011z"/>
		<path fill="#FFFFFF" d="M256.943,100.42c-1.951,2.018,0.329,14.134,10.33,20.324c0,0-3.805-11.389-4.303-16.863
			C262.479,98.477,259.427,97.852,256.943,100.42"/>
		<path fill="none" stroke="#878787" stroke-width="1.4" stroke-miterlimit="10" d="M256.943,100.42
			c-1.951,2.018,0.329,14.134,10.33,20.324c0,0-3.805-11.389-4.303-16.863C262.479,98.477,259.427,97.852,256.943,100.42z"/>
		<path fill="#FFFFFF" d="M263.758,100.593c-1.806,1.874,0.302,13.124,9.553,18.87c0,0-3.517-10.575-3.976-15.657
			C268.882,98.787,266.057,98.207,263.758,100.593"/>
		<path fill="none" stroke="#878787" stroke-width="1.4" stroke-miterlimit="10" d="M263.758,100.593
			c-1.806,1.874,0.302,13.124,9.553,18.87c0,0-3.517-10.575-3.976-15.657C268.882,98.787,266.057,98.207,263.758,100.593z"/>
		<path fill="#FFFFFF" d="M270.293,100.938c-1.701,1.697,0.319,11.916,9.078,17.156c0,0-3.353-9.609-3.8-14.225
			C275.131,99.312,272.459,98.777,270.293,100.938"/>
		<path fill="none" stroke="#878787" stroke-width="1.4" stroke-miterlimit="10" d="M270.293,100.938
			c-1.701,1.697,0.319,11.916,9.078,17.156c0,0-3.353-9.609-3.8-14.225C275.131,99.312,272.459,98.777,270.293,100.938z"/>
		<path fill="#FFFFFF" d="M277.012,101.073c-1.551,1.505,0.313,10.589,8.322,15.262c0,0-3.079-8.546-3.496-12.647
			C281.428,99.636,278.986,99.157,277.012,101.073"/>
		<path fill="none" stroke="#878787" stroke-width="1.4" stroke-miterlimit="10" d="M277.012,101.073
			c-1.551,1.505,0.313,10.589,8.322,15.262c0,0-3.079-8.546-3.496-12.647C281.428,99.636,278.986,99.157,277.012,101.073z"/>
		<path fill="#FFFFFF" d="M283.169,100.62c-1.65,1.395-0.411,10.586,7.26,15.794c0,0-2.488-8.735-2.623-12.856
			C287.673,99.488,285.27,98.843,283.169,100.62"/>
		<path fill="none" stroke="#878787" stroke-width="1.4" stroke-miterlimit="10" d="M283.169,100.62
			c-1.65,1.395-0.411,10.586,7.26,15.794c0,0-2.488-8.735-2.623-12.856C287.673,99.488,285.27,98.843,283.169,100.62z"/>
		<path fill="#FFFFFF" d="M291.872,99.313c-1.504,1.115-0.219,8.642,6.951,13.014c0,0-2.433-7.174-2.62-10.543
			C296.018,98.457,293.787,97.894,291.872,99.313"/>
		<path fill="none" stroke="#878787" stroke-width="1.4" stroke-miterlimit="10" d="M291.872,99.313
			c-1.504,1.115-0.219,8.642,6.951,13.014c0,0-2.433-7.174-2.62-10.543C296.018,98.457,293.787,97.894,291.872,99.313z"/>
		<path fill="#FFFFFF" d="M248.853,100.403c-1.912,2.279,1.399,14.919,12.434,20.721c0,0-4.869-11.759-5.802-17.509
			C254.563,97.938,251.288,97.502,248.853,100.403"/>
		<path fill="none" stroke="#878787" stroke-width="1.4" stroke-miterlimit="10" d="M248.853,100.403
			c-1.912,2.279,1.399,14.919,12.434,20.721c0,0-4.869-11.759-5.802-17.509C254.563,97.938,251.288,97.502,248.853,100.403z"/>
		<path fill="#FFFFFF" d="M273.408,182.512c0,0-5.181-7.233-5.083-10.753c0,0-1.075,7.625-0.586,10.851
			c0.488,3.226,1.759,6.745,6.158,4.594"/>
		<path fill="none" stroke="#878787" stroke-width="1.4" stroke-miterlimit="10" d="M273.408,182.512c0,0-5.181-7.233-5.083-10.753
			c0,0-1.075,7.625-0.586,10.851c0.488,3.226,1.759,6.745,6.158,4.594"/>
		<path fill="#FFFFFF" d="M277.514,181.828c-3.463,3.462-5.67-1.369-6.158-4.594c-0.488-3.226,0.587-10.85,0.587-10.85
			c-0.099,3.518,5.083,10.752,5.083,10.752S278.491,180.85,277.514,181.828"/>
		<path fill="none" stroke="#878787" stroke-width="1.4" stroke-miterlimit="10" d="M277.514,181.828
			c-3.463,3.462-5.67-1.369-6.158-4.594c-0.488-3.226,0.587-10.85,0.587-10.85c-0.099,3.518,5.083,10.752,5.083,10.752
			S278.491,180.85,277.514,181.828z"/>
		<path fill="#FFFFFF" d="M281.619,177.332c-3.462,3.462-5.67-1.368-6.158-4.594c-0.488-3.226,0.587-10.851,0.587-10.851
			c-0.099,3.52,5.083,10.753,5.083,10.753S282.598,176.354,281.619,177.332"/>
		<path fill="none" stroke="#878787" stroke-width="1.4" stroke-miterlimit="10" d="M281.619,177.332
			c-3.462,3.462-5.67-1.368-6.158-4.594c-0.488-3.226,0.587-10.851,0.587-10.851c-0.099,3.52,5.083,10.753,5.083,10.753
			S282.598,176.354,281.619,177.332z"/>
		<path fill="#FFFFFF" d="M284.741,173.493c-2.974,2.974-4.87-1.176-5.29-3.947s0.503-9.32,0.503-9.32
			c-0.083,3.022,4.367,9.236,4.367,9.236S285.581,172.652,284.741,173.493"/>
		<path fill="none" stroke="#878787" stroke-width="1.4" stroke-miterlimit="10" d="M284.741,173.493
			c-2.974,2.974-4.87-1.176-5.29-3.947s0.503-9.32,0.503-9.32c-0.083,3.022,4.367,9.236,4.367,9.236
			S285.581,172.652,284.741,173.493z"/>
		<path fill="#FFFFFF" d="M286.859,169.011c-2.364,2.364-3.871-0.934-4.205-3.137c-0.334-2.202,0.4-7.409,0.4-7.409
			c-0.066,2.403,3.472,7.342,3.472,7.342S287.526,168.344,286.859,169.011"/>
		<path fill="none" stroke="#878787" stroke-width="1.4" stroke-miterlimit="10" d="M286.859,169.011
			c-2.364,2.364-3.871-0.934-4.205-3.137c-0.334-2.202,0.4-7.409,0.4-7.409c-0.066,2.403,3.472,7.342,3.472,7.342
			S287.526,168.344,286.859,169.011z"/>
		<path fill="#FFFFFF" d="M288.896,164.788c-2.14,2.141-3.505-0.846-3.807-2.84c-0.302-1.994,0.363-6.708,0.363-6.708
			c-0.062,2.176,3.142,6.648,3.142,6.648S289.501,164.184,288.896,164.788"/>
		<path fill="none" stroke="#878787" stroke-width="1.4" stroke-miterlimit="10" d="M288.896,164.788
			c-2.14,2.141-3.505-0.846-3.807-2.84c-0.302-1.994,0.363-6.708,0.363-6.708c-0.062,2.176,3.142,6.648,3.142,6.648
			S289.501,164.184,288.896,164.788z"/>
		<path fill="#FFFFFF" d="M291.417,160.728c-1.481,2.27-3.227-0.096-3.859-1.788c-0.632-1.692-0.918-5.945-0.918-5.945
			c0.349,1.918,3.979,5.247,3.979,5.247S291.835,160.087,291.417,160.728"/>
		<path fill="none" stroke="#878787" stroke-width="1.4" stroke-miterlimit="10" d="M291.417,160.728
			c-1.481,2.27-3.227-0.096-3.859-1.788c-0.632-1.692-0.918-5.945-0.918-5.945c0.349,1.918,3.979,5.247,3.979,5.247
			S291.835,160.087,291.417,160.728z"/>
		<path fill="#FFFFFF" d="M293.576,156.799c-1.202,2.43-3.216,0.287-4.044-1.318s-1.614-5.795-1.614-5.795
			c0.572,1.863,4.57,4.739,4.57,4.739S293.916,156.113,293.576,156.799"/>
		<path fill="none" stroke="#878787" stroke-width="1.4" stroke-miterlimit="10" d="M293.576,156.799
			c-1.202,2.43-3.216,0.287-4.044-1.318s-1.614-5.795-1.614-5.795c0.572,1.863,4.57,4.739,4.57,4.739
			S293.916,156.113,293.576,156.799z"/>
		<path fill="#FFFFFF" d="M274.484,175.376c0,0-1.271,5.963-0.588,10.459c0.686,4.497,3.52,4.399,5.182,3.715
			c1.662-0.684,1.466-4.203,0-6.451C277.612,180.851,274.777,178.504,274.484,175.376"/>
		<path fill="none" stroke="#878787" stroke-width="1.4" stroke-miterlimit="10" d="M274.484,175.376c0,0-1.271,5.963-0.588,10.459
			c0.686,4.497,3.52,4.399,5.182,3.715c1.662-0.684,1.466-4.203,0-6.451C277.612,180.851,274.777,178.504,274.484,175.376z"/>
		<path fill="#FFFFFF" d="M280.251,175.376c0,0-1.271,5.963-0.586,10.459c0.684,4.497,3.518,4.399,5.18,3.715
			c1.662-0.684,1.466-4.203,0-6.451C283.379,180.851,280.544,178.504,280.251,175.376"/>
		<path fill="none" stroke="#878787" stroke-width="1.4" stroke-miterlimit="10" d="M280.251,175.376c0,0-1.271,5.963-0.586,10.459
			c0.684,4.497,3.518,4.399,5.18,3.715c1.662-0.684,1.466-4.203,0-6.451C283.379,180.851,280.544,178.504,280.251,175.376z"/>
		<path fill="#FFFFFF" d="M284.063,173.03c0,0,3.225,2.835,5.571,5.963c2.346,3.128,2.443,7.038,0.391,7.722
			c-2.052,0.685-4.398,0.587-5.669-6.256c-1.271-6.842-0.782-7.82-1.075-8.7C282.988,170.88,284.063,173.03,284.063,173.03"/>
		<path fill="none" stroke="#878787" stroke-width="1.4" stroke-miterlimit="10" d="M284.063,173.03c0,0,3.225,2.835,5.571,5.963
			c2.346,3.128,2.443,7.038,0.391,7.722c-2.052,0.685-4.398,0.587-5.669-6.256c-1.271-6.842-0.782-7.82-1.075-8.7
			C282.988,170.88,284.063,173.03,284.063,173.03z"/>
		<path fill="#FFFFFF" d="M286.507,169.805c0,0,4.008,5.669,4.692,7.429c0.684,1.759,0.782,5.963,4.496,5.181
			c3.715-0.782,2.933-6.354-0.195-8.016S286.507,169.805,286.507,169.805"/>
		<path fill="none" stroke="#878787" stroke-width="1.4" stroke-miterlimit="10" d="M286.507,169.805c0,0,4.008,5.669,4.692,7.429
			c0.684,1.759,0.782,5.963,4.496,5.181c3.715-0.782,2.933-6.354-0.195-8.016S286.507,169.805,286.507,169.805z"/>
		<path fill="#FFFFFF" d="M291.785,165.015c0,0,4.009,5.669,4.692,7.429c0.684,1.76,0.782,5.963,4.496,5.181
			c3.715-0.782,2.933-6.354-0.195-8.016C297.65,167.947,291.785,165.015,291.785,165.015"/>
		<path fill="none" stroke="#878787" stroke-width="1.4" stroke-miterlimit="10" d="M291.785,165.015c0,0,4.009,5.669,4.692,7.429
			c0.684,1.76,0.782,5.963,4.496,5.181c3.715-0.782,2.933-6.354-0.195-8.016C297.65,167.947,291.785,165.015,291.785,165.015z"/>
		<path fill="#FFFFFF" d="M296.185,159.052c0,0,4.007,5.67,4.692,7.429c0.684,1.76,0.781,5.963,4.496,5.181
			c3.715-0.782,2.933-6.354-0.195-8.016C302.05,161.985,296.185,159.052,296.185,159.052"/>
		<path fill="none" stroke="#878787" stroke-width="1.4" stroke-miterlimit="10" d="M296.185,159.052c0,0,4.007,5.67,4.692,7.429
			c0.684,1.76,0.781,5.963,4.496,5.181c3.715-0.782,2.933-6.354-0.195-8.016C302.05,161.985,296.185,159.052,296.185,159.052z"/>
		<path fill="#FFFFFF" d="M300.583,152.894c0,0,4.008,5.67,4.692,7.429c0.684,1.76,0.782,5.963,4.496,5.181
			c3.715-0.782,2.933-6.354-0.195-8.016C306.448,155.827,300.583,152.894,300.583,152.894"/>
		<path fill="none" stroke="#878787" stroke-width="1.4" stroke-miterlimit="10" d="M300.583,152.894c0,0,4.008,5.67,4.692,7.429
			c0.684,1.76,0.782,5.963,4.496,5.181c3.715-0.782,2.933-6.354-0.195-8.016C306.448,155.827,300.583,152.894,300.583,152.894z"/>
		<path fill="#FFFFFF" d="M303.277,148.337c0,0,4.344,4.412,5.198,5.862c0.855,1.45,1.546,5.135,4.702,3.912
			s1.666-6.013-1.326-7.026C308.86,150.074,303.277,148.337,303.277,148.337"/>
		<path fill="none" stroke="#878787" stroke-width="1.4" stroke-miterlimit="10" d="M303.277,148.337c0,0,4.344,4.412,5.198,5.862
			c0.855,1.45,1.546,5.135,4.702,3.912s1.666-6.013-1.326-7.026C308.86,150.074,303.277,148.337,303.277,148.337z"/>
		<path fill="#FFFFFF" d="M305.519,143.897c0,0,4.343,3.445,5.261,4.64c0.919,1.195,1.938,4.393,4.608,2.961
			c2.671-1.433,0.82-5.526-1.948-6.098C310.671,144.828,305.519,143.897,305.519,143.897"/>
		<path fill="none" stroke="#878787" stroke-width="1.4" stroke-miterlimit="10" d="M305.519,143.897c0,0,4.343,3.445,5.261,4.64
			c0.919,1.195,1.938,4.393,4.608,2.961c2.671-1.433,0.82-5.526-1.948-6.098C310.671,144.828,305.519,143.897,305.519,143.897z"/>
		<path fill="none" stroke="#878787" stroke-width="1.4" stroke-miterlimit="10" d="M419.545,122.298c0,0,5.865,16.715-5.57,26.686
			 M292.567,78.016c0,0,11.145,5.279,17.009,9.678c5.865,4.399,20.82,7.038,24.927-0.293 M278.198,73.031
			c0,0-17.889-3.519-21.799-2.639c-3.583,0.806-7.136,9.873,2.248,13.392c9.385,3.519,26.198,5.279,29.912,8.015 M285.04,120.929
			c0,0,5.475,3.91,6.844,8.798 M318.08,118.877c0,0-11.339,3.909-15.054,14.466c-3.714,10.557-4.203,25.025-4.887,26.002
			 M307.133,126.99c0,0-13.979,0.684-14.956,11.828c-0.979,11.143-0.782,14.955-0.782,14.955"/>
		<path fill="#878787" d="M677.271,198.54l-25.968,38.383L625.51,198.54h-6.207v65.574h5.945v-56.743l26.055,39.257l26.23-39.257
			v56.743h5.857V198.54H677.271z M593.99,264.114h5.771v-43.716h-5.771V264.114z M596.876,212.092c1.165,0,2.171-0.423,3.016-1.268
			c0.846-0.845,1.269-1.85,1.269-3.016s-0.423-2.171-1.269-3.017c-0.845-0.845-1.851-1.267-3.016-1.267
			c-1.166,0-2.172,0.422-3.017,1.267c-0.846,0.846-1.269,1.851-1.269,3.017s0.423,2.171,1.269,3.016
			C594.704,211.668,595.71,212.092,596.876,212.092 M541.632,229.229v-25.443h16.7c3.497,0,6.499,1.238,9.005,3.716
			c2.507,2.477,3.76,5.464,3.76,8.962c0,3.555-1.238,6.572-3.716,9.049c-2.477,2.477-5.494,3.716-9.049,3.716H541.632z
			 M561.217,233.95c4.372-0.583,8.016-2.506,10.93-5.771c2.914-3.264,4.371-7.111,4.371-11.541c0-5.012-1.748-9.282-5.245-12.808
			c-3.498-3.527-7.753-5.29-12.766-5.29h-22.819v65.574h5.944v-29.902h13.552l16.176,29.902h6.645L561.217,233.95z"/>
	</g>
</g>
</svg>
